{"title":"Double Suicide (Masahiro Shinoda, 1969)","uid":7576972,"size":1459075907,"categoryP":"video","categoryS":"movies","magnet":"?xt=urn:btih:9c8b2101e54dda020d66c3f86c1201dd40858cf2&amp;dn=Double+Suicide+%28Masahiro+Shinoda%2C+1969%29&amp;tr=udp%3A%2F%2Ftracker.openbittorrent.com%3A80&amp;tr=udp%3A%2F%2Fopen.demonii.com%3A1337&amp;tr=udp%3A%2F%2Ftracker.coppersurfer.tk%3A6969&amp;tr=udp%3A%2F%2Fexodus.desync.com%3A6969","seeders":0,"leechers":0,"uploader":null,"files":3,"time":1346139879,"description":"Many films have drawn from classic Japanese theatrical forms, but none with such shocking cinematic effect as director Masahiro ShinodaÎ“Ã‡Ã–s Double Suicide. In this striking adaptation of a Bunraku puppet play (featuring the music of famed composer Toru Takemitsu), a paper merchant sacrifices family, fortune, and ultimately life for his erotic obsession with a prostitute.\n\n\n___________________________________________________\n\n\n\nGeneral\nComplete name                    : Shinju Ten no amijima.avi\nFormat                           : AVI\nFormat/Info                      : Audio Video Interleave\nFile size                        : 1.36 GiB\nDuration                         : 1h 43mn\nOverall bit rate                 : 1 872 Kbps\n\nVideo\nID                               : 0\nFormat                           : MPEG-4 Visual\nFormat profile                   : Advanced Simple@L5\nFormat settings, BVOP            : Yes\nFormat settings, QPel            : No\nFormat settings, GMC             : No warppoints\nFormat settings, Matrix          : Default (MPEG)\nCodec ID                         : XVID\nCodec ID/Hint                    : XviD\nDuration                         : 1h 43mn\nBit rate                         : 1 734 Kbps\nWidth                            : 624 pixels\nHeight                           : 464 pixels\nDisplay aspect ratio             : 4:3\nFrame rate                       : 23.976 fps\nColor space                      : YUV\nChroma subsampling               : 4:2:0\nBit depth                        : 8 bits\nScan type                        : Progressive\nCompression mode                 : Lossy\nBits/(Pixel*Frame)               : 0.250\nStream size                      : 1.26 GiB (93%)\nWriting library                  : XviD 1.2.1 (UTC 2008-12-04)\n\nAudio\nID                               : 1\nFormat                           : MPEG Audio\nFormat version                   : Version 1\nFormat profile                   : Layer 3\nMode                             : Joint stereo\nMode extension                   : MS Stereo\nCodec ID                         : 55\nCodec ID/Hint                    : MP3\nDuration                         : 1h 43mn\nBit rate mode                    : Constant\nBit rate                         : 128 Kbps\nChannel(s)                       : 2 channels\nSampling rate                    : 48.0 KHz\nCompression mode                 : Lossy\nStream size                      : 94.9 MiB (7%)\nAlignment                        : Aligned on interleaves\nInterleave, duration             : 42 ms (1.00 video frame)\nInterleave, preload duration     : 504 ms","torrent":{"xt":"urn:btih:9c8b2101e54dda020d66c3f86c1201dd40858cf2","amp;dn":"Double+Suicide+%28Masahiro+Shinoda%2C+1969%29","amp;tr":["udp%3A%2F%2Ftracker.openbittorrent.com%3A80","udp%3A%2F%2Fopen.demonii.com%3A1337","udp%3A%2F%2Ftracker.coppersurfer.tk%3A6969","udp%3A%2F%2Fexodus.desync.com%3A6969"],"infoHash":"9c8b2101e54dda020d66c3f86c1201dd40858cf2","infoHashBuffer":{"type":"Buffer","data":[156,139,33,1,229,77,218,2,13,102,195,248,108,18,1,221,64,133,140,242]},"announce":[],"urlList":[]}}